<svg xmlns="http://www.w3.org/2000/svg" viewBox="0 0 500 500"><g id="freepik--background-simple--inject-39"><path d="M420.24,342.55c-32.93,50.68-95.79,81-155.65,81.51s-115.74-26.19-155.36-66.41C81,329,59.79,292.21,57,251.39s2.72-85.58,38.59-110.81c13.54-9.53,42.6-16.28,58.44-14.34,25.3,3.1,40.61,26,52.85,46.91s27.48,43.83,52.75,47c19.42,2.47,38.91-7.68,58.49-12.3,33.3-7.84,69,1.43,91.62,23.77a84.71,84.71,0,0,1,15.41,20.92c13.58,25.94,12.84,57.06-1.06,82.83Z" style="fill:#f5f5f5"></path></g><g id="freepik--Floor--inject-39"><path d="M432.65,459.36c0,.15-81.08.26-181.07.26s-181.09-.11-181.09-.26,81.06-.26,181.09-.26S432.65,459.22,432.65,459.36Z" style="fill:#263238"></path></g><g id="freepik--Character--inject-39"><path d="M344.88,397.55l-15.23-72.64s-8.93-35-39.67-47.08l-2.12-.65-3-.91c-1.24-.48-6.28-2.08-7.61-2.5-41.44-14.36-52.44-10.62-95.62,4.11,0,0-19.19,5.17-28.49,30.19s-27.09,64.17-27.09,64.17l43.08,15.22,8.26-12.27v83.93h118.5l-3.27-38.64-.57-47.59" style="fill:#FF725E"></path><path d="M224.26,282.34a5.4,5.4,0,0,1-1,.92,13.09,13.09,0,0,1-1.25,1,20.47,20.47,0,0,1-1.73,1.19,31.8,31.8,0,0,1-4.85,2.52,36.6,36.6,0,0,1-6.41,1.94,37.21,37.21,0,0,1-6.67.62,32.18,32.18,0,0,1-5.44-.51c-.78-.11-1.45-.31-2.05-.45a11.27,11.27,0,0,1-1.53-.44,5.84,5.84,0,0,1-1.26-.48c0-.1,1.85.54,4.9,1a36.3,36.3,0,0,0,5.38.39,38.27,38.27,0,0,0,6.57-.66,38.75,38.75,0,0,0,6.33-1.86,36.41,36.41,0,0,0,4.84-2.39C222.75,283.53,224.2,282.26,224.26,282.34Z" style="fill:#fafafa"></path><g style="opacity:0.30000000000000004"><polygon points="177.43 407.13 187.14 418.35 196.69 418.35 196.69 430.56 295.44 453.4 294.64 443.89 201.73 411.99 186.16 411.99 178.66 405.99 177.43 407.13"></polygon></g><path d="M206.51,397.14l-8.24-1.52S178.75,374.26,175.09,374c-3-.25-19.63-.09-25.41,0a2,2,0,0,0-2,2h0a2,2,0,0,0,1.94,2l19.62.76.09,1.58-19.65.26c-2,.15-3.28,3.32,3.13,3.89l16.43.59v1l-16.66,2.33c-.85.12-3.06.55-3.08,1.4,0,0-1,2.09,3.74,2.68,1.63.2,16.09-.28,16.09-.28l-.55,1.3-15,3.23a2.13,2.13,0,0,0-1.66,2.38h0a2.13,2.13,0,0,0,2.3,1.83l16-1.49L186.16,412h21Z" style="fill:#ffbe9d"></path><polyline points="344.88 397.55 296.95 406.98 292.09 372.89" style="fill:#FF725E"></polyline><path d="M290.57,398.85,201.73,396l0,30.7,58.94,11.71L302.07,445c25.72,0,46.29-23.61,42.31-49l-.11,0Z" style="fill:#FF725E"></path><path d="M315,398.29a7.85,7.85,0,0,1-1.15.08l-3.3.09-12.15.22c-10.25.15-24.42.32-40.08.17s-29.83-.72-40.07-1.41c-5.12-.34-9.26-.67-12.11-1l-3.29-.34a7.51,7.51,0,0,1-1.14-.16,7.27,7.27,0,0,1,1.16,0l3.29.21c2.86.2,7,.46,12.12.74,10.24.56,24.4,1.05,40.05,1.21s29.81,0,40.07,0h12.15l3.3,0A5.63,5.63,0,0,1,315,398.29Z" style="fill:#263238"></path><path d="M201.74,396.26a3.68,3.68,0,0,1,0,.54q0,.58,0,1.59c0,1.43,0,3.47.06,6.06,0,5.25.06,12.71.11,21.7l-.18-.22c10,2.15,22.06,4.82,35,7.53,17.74,3.76,33.9,6.72,45.64,8.54,5.88.9,10.64,1.56,13.94,2l3.79.5,1,.14a1.12,1.12,0,0,1,.33.07l-.34,0-1-.09-3.81-.4c-3.3-.38-8.08-1-14-1.84-11.77-1.72-27.95-4.63-45.7-8.39-12.95-2.71-25-5.41-35-7.61l-.17,0v-.17c0-9,.06-16.45.08-21.7,0-2.59,0-4.63.06-6.06q0-1,0-1.59A2,2,0,0,1,201.74,396.26Z" style="fill:#263238"></path><path d="M194.15,312.28a8.09,8.09,0,0,1,.06-1.5c.07-1,.16-2.35.2-4.07a70.14,70.14,0,0,0-.93-13.37c-.91-5.14-2.06-9.83-3.85-12.75a10.24,10.24,0,0,0-2.65-3c-.78-.55-1.28-.76-1.26-.8s.14,0,.38.12a5.88,5.88,0,0,1,1,.51,9.81,9.81,0,0,1,2.85,3,21.62,21.62,0,0,1,2.4,5.6,63.58,63.58,0,0,1,2.44,20.73c-.09,1.72-.24,3.12-.36,4.07A7.65,7.65,0,0,1,194.15,312.28Z" style="fill:#263238"></path><path d="M291.84,285.29c.15,0,.26,20.41.26,45.59s-.11,45.59-.26,45.59-.26-20.41-.26-45.59S291.7,285.29,291.84,285.29Z" style="fill:#263238"></path><path d="M322.5,387.83c0,.09-1.51.05-3.91.34a33.54,33.54,0,0,0-4.17.81,35.18,35.18,0,0,0-4.88,1.74,34.43,34.43,0,0,0-4.54,2.53,32.07,32.07,0,0,0-3.35,2.59c-1.81,1.61-2.77,2.77-2.85,2.71a5,5,0,0,1,.62-.86,22.1,22.1,0,0,1,2-2.12,27.41,27.41,0,0,1,3.33-2.72,32.49,32.49,0,0,1,4.59-2.6,31.51,31.51,0,0,1,5-1.73,27.21,27.21,0,0,1,4.25-.71,20.54,20.54,0,0,1,2.89-.09A4.1,4.1,0,0,1,322.5,387.83Z" style="fill:#263238"></path><g style="opacity:0.30000000000000004"><path d="M195,392.08c15-8.94,24.32-23.74,33.45-38.6s17.64-30.45,30.3-42.43c5.81-5.51,12.61-10.15,14.76-17.87l-22.76,18.09-63.4,72.91Z"></path></g><path d="M153.88,353c0,.19-3.58.05-7.67,1.45a39.53,39.53,0,0,0-5.06,2.23,10.75,10.75,0,0,1-2.09,1,9.44,9.44,0,0,1,1.91-1.32,27,27,0,0,1,5.07-2.4,20.24,20.24,0,0,1,5.52-1.05A7.7,7.7,0,0,1,153.88,353Z" style="fill:#263238"></path><path d="M153.88,353c0,.19-3.58.05-7.67,1.45a39.53,39.53,0,0,0-5.06,2.23,10.75,10.75,0,0,1-2.09,1,9.44,9.44,0,0,1,1.91-1.32,27,27,0,0,1,5.07-2.4,20.24,20.24,0,0,1,5.52-1.05A7.7,7.7,0,0,1,153.88,353Z" style="fill:#263238"></path><path d="M291.46,385.64a13.06,13.06,0,0,0-3.45-1.59c-2.35-.73-6-.72-10.23.64s-8.63,4.25-14.07,6.51a20.72,20.72,0,0,1-9,1.73,24.57,24.57,0,0,1-9.45-2.9c-3-1.52-5.85-3.22-8.72-4.55A26.32,26.32,0,0,0,227.8,383a28.33,28.33,0,0,0-15,2.71,27,27,0,0,0-8.34,6.12l-1.09,1.23-.72,1-.45.58-.17.19a.75.75,0,0,1,.12-.22c.11-.16.25-.36.41-.61l.69-1,1.06-1.26a26.32,26.32,0,0,1,8.33-6.33,27.38,27.38,0,0,1,6.86-2.36,27.67,27.67,0,0,1,8.32-.49,26.59,26.59,0,0,1,8.87,2.47c2.91,1.35,5.74,3.05,8.74,4.55a24.17,24.17,0,0,0,9.25,2.86,20.1,20.1,0,0,0,8.82-1.67c5.38-2.2,9.83-5.19,14.14-6.41s8-1.29,10.39-.49a10.58,10.58,0,0,1,2.6,1.19l.61.44C291.4,385.58,291.47,385.63,291.46,385.64Z" style="fill:#fafafa"></path><path d="M334.9,348.65a8.91,8.91,0,0,0-1.8-.34,8.82,8.82,0,0,0-4.7,1.44c-1.85,1-3.63,2.92-6.15,4.33a8,8,0,0,1-4.38,1.1,11.85,11.85,0,0,1-4.6-1.46c-1.47-.74-2.83-1.57-4.24-2.13a18.73,18.73,0,0,0-4.21-1.18,18.52,18.52,0,0,0-3.95-.21,17.59,17.59,0,0,0-3.43.45,19.9,19.9,0,0,0-4.72,1.68c-1.07.54-1.61.91-1.64.87s.12-.12.37-.3a10.44,10.44,0,0,1,1.17-.74,18.89,18.89,0,0,1,8.22-2.39,19,19,0,0,1,8.38,1.35c1.46.57,2.84,1.4,4.28,2.13a11.58,11.58,0,0,0,4.4,1.42,7.52,7.52,0,0,0,4.12-1c2.44-1.34,4.27-3.2,6.19-4.23a8.74,8.74,0,0,1,4.9-1.32,4.59,4.59,0,0,1,1.36.32A2,2,0,0,1,334.9,348.65Z" style="fill:#fafafa"></path><path d="M290.92,335a3.65,3.65,0,0,1-.68-.12c-.22,0-.49-.12-.82-.17l-1.12-.15a19.3,19.3,0,0,0-7.13.73,43.53,43.53,0,0,0-9.74,4.39A93.51,93.51,0,0,1,259.82,346a25,25,0,0,1-6.63,1.82,17,17,0,0,1-6.4-.44,30.32,30.32,0,0,1-5.38-2.15c-1.62-.8-3.1-1.59-4.48-2.24a19.14,19.14,0,0,0-6.86-2.07,11.18,11.18,0,0,0-2,.06,3.47,3.47,0,0,1-.68,0,2.81,2.81,0,0,1,.67-.15,10.34,10.34,0,0,1,2-.16,18.37,18.37,0,0,1,7,1.95c1.41.63,2.9,1.4,4.52,2.18a29.78,29.78,0,0,0,5.31,2.07,16.69,16.69,0,0,0,6.22.4,24.46,24.46,0,0,0,6.5-1.79c4.3-1.77,8-4.23,11.56-6.24a42.73,42.73,0,0,1,9.89-4.34,18.6,18.6,0,0,1,7.24-.57l1.13.2c.33.07.59.16.81.22A3.55,3.55,0,0,1,290.92,335Z" style="fill:#fafafa"></path><path d="M321.89,304.2a5,5,0,0,1-1.07.62c-.71.37-1.73.89-3,1.46a28.83,28.83,0,0,1-4.74,1.64,17.36,17.36,0,0,1-6.14.42c-2.18-.23-4.19-.69-6-.94a17.41,17.41,0,0,0-4.91-.09,10.65,10.65,0,0,0-4.22,1.56s.07-.1.22-.24a6.91,6.91,0,0,1,.75-.54,9.21,9.21,0,0,1,3.2-1.15,17.09,17.09,0,0,1,5,0c1.88.23,3.9.68,6,.9,4.29.51,8.09-.86,10.69-1.88,1.31-.52,2.36-1,3.09-1.3A6,6,0,0,1,321.89,304.2Z" style="fill:#fafafa"></path><path d="M192.59,320.85a5.8,5.8,0,0,0-1.77-.42,7.47,7.47,0,0,0-4.59,1.7c-.86.61-1.76,1.37-2.83,2.07a10.59,10.59,0,0,1-3.79,1.52,17.93,17.93,0,0,1-9.17-1.1c-3.1-1.12-5.87-2.54-8.53-3.48a23.38,23.38,0,0,0-3.83-1,15.34,15.34,0,0,0-3.44-.21,11,11,0,0,0-4.8,1.28c-1,.58-1.51,1.05-1.54,1s.1-.13.33-.35a7.09,7.09,0,0,1,1.11-.84,10.7,10.7,0,0,1,4.87-1.47,16,16,0,0,1,3.54.15,22.71,22.71,0,0,1,3.92,1c2.7.92,5.49,2.34,8.55,3.44a17.65,17.65,0,0,0,8.9,1.11,10.08,10.08,0,0,0,3.65-1.41c1.05-.66,2-1.4,2.85-2a7.43,7.43,0,0,1,4.81-1.6,3.53,3.53,0,0,1,1.35.36A1.33,1.33,0,0,1,192.59,320.85Z" style="fill:#fafafa"></path><path d="M248.92,397.45s.12.08.32.27a6.78,6.78,0,0,1,.79.93,9.64,9.64,0,0,1,.31,10.58c-1.33,2.15-3.6,3.86-4.87,6.33a6.07,6.07,0,0,0-.5,3.89,15,15,0,0,0,1.3,3.58c1.09,2.18,2.1,4.3,2.06,6.26a5.06,5.06,0,0,1-1.87,4,3.14,3.14,0,0,1-1.1.53c-.28.05-.42.06-.43,0a4.78,4.78,0,0,0,1.41-.73,5,5,0,0,0,1.63-3.83c0-1.84-1-3.86-2.13-6.05a15,15,0,0,1-1.37-3.69,6.56,6.56,0,0,1,.53-4.22,15.83,15.83,0,0,1,2.5-3.39,23.83,23.83,0,0,0,2.43-3,9.17,9.17,0,0,0,1.37-6.13,9.83,9.83,0,0,0-1.44-4.08C249.3,397.89,248.88,397.48,248.92,397.45Z" style="fill:#fafafa"></path><path d="M290.84,441.35a2.11,2.11,0,0,1-.38-.33,4.06,4.06,0,0,1-.77-1.2,6.79,6.79,0,0,1,.25-5.16,10.76,10.76,0,0,1,1.95-3.07c.85-1,1.85-1.94,2.87-3a16.61,16.61,0,0,0,2.78-3.5,11.63,11.63,0,0,0,1.33-4.55c.34-3.29-.26-6.45-.42-9.36a16.37,16.37,0,0,1,1-7.66,8.75,8.75,0,0,1,3.29-4,5.84,5.84,0,0,1,1.29-.61,1.61,1.61,0,0,1,.48-.11,11.76,11.76,0,0,0-1.66.89,8.84,8.84,0,0,0-3.06,4,16.28,16.28,0,0,0-.83,7.48c.19,2.87.81,6.05.47,9.45a12.1,12.1,0,0,1-1.41,4.74A16.44,16.44,0,0,1,295.1,429c-2.08,2-4,3.81-4.82,5.84a5.65,5.65,0,0,0,.56,6.55Z" style="fill:#fafafa"></path><path d="M296,454.61a6,6,0,0,1-1.12.71,9.49,9.49,0,0,1-3.63,1,15.47,15.47,0,0,1-5.93-.66,32.67,32.67,0,0,1-7.19-3.32,47.58,47.58,0,0,0-8.51-4.26,20.39,20.39,0,0,0-10.73-.37,66.26,66.26,0,0,0-11.42,3.95A67,67,0,0,1,235.1,456a22.25,22.25,0,0,1-6.65.37,18.07,18.07,0,0,1-6.22-1.84c-3.82-1.91-6.88-4.68-10-6.94a31.77,31.77,0,0,0-4.76-3l-1.22-.58c-.41-.18-.83-.31-1.24-.47a19.57,19.57,0,0,0-2.49-.74,25.18,25.18,0,0,0-9.44-.39,26.43,26.43,0,0,0-7.49,2.24c-.53.23-1,.53-1.49.77a11.38,11.38,0,0,0-1.33.79c-.41.28-.81.53-1.18.79l-1,.79a16.35,16.35,0,0,0-1.62,1.44,10.24,10.24,0,0,0-1.1,1.14l-.66.73c-.15.16-.23.24-.24.23l.2-.27.62-.76a10.46,10.46,0,0,1,1.07-1.18,17.11,17.11,0,0,1,1.6-1.48l1-.83,1.19-.81a13,13,0,0,1,1.33-.81c.48-.26,1-.56,1.49-.8A26.13,26.13,0,0,1,193,442a25,25,0,0,1,9.58.33,19.79,19.79,0,0,1,2.54.74c.43.16.86.29,1.28.47l1.24.59a32.43,32.43,0,0,1,4.84,3c3.15,2.27,6.2,5,9.94,6.87a17.31,17.31,0,0,0,6,1.78,21.32,21.32,0,0,0,6.5-.37,66.86,66.86,0,0,0,12.26-4.22,65.12,65.12,0,0,1,11.51-4,20.87,20.87,0,0,1,11,.43,47.83,47.83,0,0,1,8.56,4.35,32.27,32.27,0,0,0,7.08,3.36,15.64,15.64,0,0,0,5.84.74,9.78,9.78,0,0,0,3.6-.93C295.59,454.86,296,454.58,296,454.61Z" style="fill:#fafafa"></path><path d="M240.34,287.81h0a20.8,20.8,0,0,0,21.74-18.95c.58-6.6,1-12.24,1-12.24s17-.43,19.41-17.1S287,184.13,287,184.13h0a58.52,58.52,0,0,0-59.27-.24L225,185.48l-4.38,80.43A20.79,20.79,0,0,0,240.34,287.81Z" style="fill:#ffbe9d"></path><path d="M265.48,228c0-.19,1.46-.29,3.82-.31.61,0,1.1-.06,1.18-.38a3.27,3.27,0,0,0-.2-1.78l-1.22-4.91c-1.65-7-2.7-12.71-2.34-12.79s2,5.51,3.63,12.49c.38,1.7.75,3.33,1.11,4.93a3.89,3.89,0,0,1,0,2.55,1.59,1.59,0,0,1-1.16.82,3.6,3.6,0,0,1-1,0C266.91,228.4,265.47,228.18,265.48,228Z" style="fill:#263238"></path><path d="M263.18,256.39a39.22,39.22,0,0,1-21-9s3.59,12.69,20.44,13.35Z" style="fill:#eb996e"></path><path d="M286.78,188.37s-10.5,4.39-23.45-3c-8.5-4.84-18.56-7.53-20.91-5.9s-3.31,10.61-12.11,12.76c0,0-.35,17.21-7.17,16.22s-1.06-27.36-1.06-27.36l17.2-7.26,18.47-2.44,17.1,3.38L288,179.16Z" style="fill:#263238"></path><path d="M224.81,203c-.27-.16-11-4.88-12.15,6.58s10.62,10.22,10.67,9.9S224.81,203,224.81,203Z" style="fill:#ffbe9d"></path><path d="M220.25,214.83s-.21.12-.56.24a2,2,0,0,1-1.5-.11c-1.17-.56-2-2.59-1.85-4.66a6.56,6.56,0,0,1,.83-2.8,2.33,2.33,0,0,1,1.65-1.39,1,1,0,0,1,1.13.66c.12.34,0,.56.09.59s.26-.17.21-.65a1.24,1.24,0,0,0-.38-.77,1.52,1.52,0,0,0-1.07-.4,2.84,2.84,0,0,0-2.26,1.58,6.81,6.81,0,0,0-1,3.13c-.16,2.31.82,4.59,2.43,5.23a2.16,2.16,0,0,0,1.85-.12C220.2,215.11,220.29,214.86,220.25,214.83Z" style="fill:#eb996e"></path><path d="M237.93,181.32a39.84,39.84,0,0,1-7.63,6.83,13.29,13.29,0,0,1-9.8,2.07c-3.33-.77-6.28-3.65-6.42-7.08s3.21-6.75,6.55-6a3.57,3.57,0,1,1,2.11-6.41c-2.91-.55-3.23-5.16-.92-7s5.71-1.44,8.44-.33,5.26,2.83,8.15,3.45c4.53,1,9.18-.91,13.19-3.24s7.81-5.17,12.28-6.41c5.48-1.51,11.41-.4,16.65,1.8a26.75,26.75,0,0,1,11.31,8.25c2.83,3.78,4.23,8.8,3,13.35s-5.49,8.33-10.22,8.35c0,0-10.61,1.06-19.25-5.35S238.49,178,238.49,178Z" style="fill:#263238"></path><path d="M222,168s.21.22.66.53,1.15.74,2.06,1.26a37.48,37.48,0,0,0,8.27,3.29,39.82,39.82,0,0,0,13.15,1.25c5-.33,10.29-2,15.78-3.29s10.9-2,15.6-.86,8.38,3.92,10,7.13a11.41,11.41,0,0,1,.87,8.32,18.51,18.51,0,0,1-1.33,2.9s.24-.17.6-.6a8.39,8.39,0,0,0,1.18-2.15,11.47,11.47,0,0,0-.54-8.85c-1.66-3.54-5.59-6.65-10.52-7.85s-10.62-.6-16.16.77-10.72,3-15.58,3.35a41.06,41.06,0,0,1-12.85-1C225.94,170.46,222.06,167.73,222,168Z" style="fill:#455a64"></path><path d="M216.8,185.69c-.12.06.25,1.18,1.49,2.61a11.68,11.68,0,0,0,13.49,2.91c1.72-.78,2.52-1.65,2.43-1.76s-1.07.43-2.74,1a12.66,12.66,0,0,1-12.57-2.71C217.6,186.52,217,185.59,216.8,185.69Z" style="fill:#455a64"></path><path d="M220.38,180c-.29.14.59,2.22,2.81,3.75s4.47,1.63,4.49,1.3-1.84-.94-3.8-2.31S220.68,179.84,220.38,180Z" style="fill:#455a64"></path><path d="M292.41,196c.15,0,.48-.53.56-1.56a6.34,6.34,0,0,0-4.12-6.34c-1-.34-1.62-.27-1.65-.12-.1.33,2.26,1,3.73,3.28S292.07,196,292.41,196Z" style="fill:#263238"></path><path d="M298.35,179.58c-.34-.14-1.6,2.89-4.6,5.39s-6.15,3.32-6.06,3.68,3.61,0,6.86-2.74S298.67,179.62,298.35,179.58Z" style="fill:#455a64"></path><path d="M281,209.53a2.57,2.57,0,0,1-2.8,2.26,2.47,2.47,0,0,1-2.34-2.65,2.58,2.58,0,0,1,2.8-2.26A2.47,2.47,0,0,1,281,209.53Z" style="fill:#263238"></path><path d="M283,209.31c-.36.29-2.11-1.4-4.86-1.75s-4.95.76-5.21.39c-.12-.17.28-.73,1.24-1.26a7.13,7.13,0,0,1,4.22-.72,6.71,6.71,0,0,1,3.82,1.81C283,208.54,283.18,209.18,283,209.31Z" style="fill:#263238"></path><path d="M255.92,206.05a2.57,2.57,0,0,1-2.8,2.26,2.47,2.47,0,0,1-2.34-2.65,2.59,2.59,0,0,1,2.81-2.26A2.46,2.46,0,0,1,255.92,206.05Z" style="fill:#263238"></path><path d="M257.72,206c-.36.29-2.12-1.39-4.87-1.75s-4.95.77-5.21.39c-.12-.17.28-.73,1.24-1.25a7,7,0,0,1,4.22-.72,6.77,6.77,0,0,1,3.82,1.8C257.68,205.21,257.89,205.85,257.72,206Z" style="fill:#263238"></path><path d="M256.66,198.41c-.55.48-2.61-1-5.4-1.28s-5.11.7-5.54.12c-.2-.28.17-1,1.2-1.67a7.38,7.38,0,0,1,8.92.94C256.7,197.4,256.91,198.18,256.66,198.41Z" style="fill:#263238"></path><path d="M282.83,203c.12.33-.36.88-1.36,1.31a8.11,8.11,0,0,1-8-1.26c-.82-.72-1.1-1.38-.89-1.66.48-.56,2.53.41,5.13.78S282.55,202.29,282.83,203Z" style="fill:#263238"></path><path d="M263.37,232.58c.28,0,.48.53.45,1.15s-.3,1.11-.59,1.1-.49-.54-.45-1.16S263.08,232.56,263.37,232.58Z" style="fill:#263238"></path><path d="M222.77,223.88a1.44,1.44,0,0,1-.25.67,3.49,3.49,0,0,1-1.46,1.32,3.6,3.6,0,0,1-2.91.17,4.17,4.17,0,0,1-2.51-2.55,4.59,4.59,0,0,1,4.43-5.92,1.47,1.47,0,0,1,.71.11,7.67,7.67,0,0,0-2.46.62,4.29,4.29,0,0,0-1.9,1.86,4.13,4.13,0,0,0-.29,3.16,3.81,3.81,0,0,0,2.19,2.27,3.3,3.3,0,0,0,2.59-.05A4.59,4.59,0,0,0,222.77,223.88Z" style="fill:#455a64"></path><path d="M233.83,292.36s5.58-7.88,9.09-12.31c4.25-5.36,6.78-10,6.78-12.49V254.28s5.29-1.25,6,4.76,0,7.52,0,7.52,22.21-15,23.71-13.87c2.65,1.9-2.37,5.9-2.37,5.9l-13.53,12.23,7.7-2.44a3.6,3.6,0,0,1,4.51,2.26h0a3.59,3.59,0,0,1-1.37,4.12l-4.56,3.95,2.29-.92a3.53,3.53,0,0,1,4.47,1.67h0a3.48,3.48,0,0,1-.58,4l-4.15,4.43,1.94-1a2.54,2.54,0,0,1,3.46,1.09h0a2.52,2.52,0,0,1-.69,3.09l-24.86,19.65Z" style="fill:#ffbe9d"></path><path d="M251.71,310.65l-.31-.29c-.21-.22-.52-.52-.91-.9-.81-.83-2-2-3.53-3.56l-13.24-13.42-.1-.1.08-.11q2.43-3.47,5.31-7.38,1.44-2,3-4c1.06-1.36,2.15-2.73,3.17-4.22a40.59,40.59,0,0,0,2.87-4.7,10.08,10.08,0,0,0,1.42-5.43q0-5.91,0-12.26v-.2l.18,0a5.58,5.58,0,0,1,4,.66,4.82,4.82,0,0,1,1.45,1.53,6.75,6.75,0,0,1,.73,2,30.27,30.27,0,0,1,.45,4.15c0,.7,0,1.41,0,2.12a7.48,7.48,0,0,1-.34,2.18l-.37-.32c3.43-2.3,7-4.63,10.66-7,1.83-1.16,3.7-2.32,5.6-3.45a58.8,58.8,0,0,1,5.93-3.17,6.28,6.28,0,0,1,.86-.31,2.27,2.27,0,0,1,.48-.09.85.85,0,0,1,.31,0,.56.56,0,0,1,.27.17,1.9,1.9,0,0,1,.75,1.76,6.1,6.1,0,0,1-1.78,3.11c-.81.87-1.73,1.58-2.55,2.36l-2.54,2.29L263.72,271l-.25-.43,4.51-1.42,2.23-.7c.37-.12.72-.24,1.11-.35a3.81,3.81,0,0,1,1.21-.13,3.82,3.82,0,0,1,2,7h0L270,278.88l-.24-.38,2.24-.9a3.85,3.85,0,0,1,2.46-.16,3.71,3.71,0,0,1,2,5.83c-.51.6-1,1.09-1.5,1.63-1,1.05-2,2.08-2.91,3.09l-.25-.32,2.09-1.09a2.72,2.72,0,0,1,3.8,1.89,2.67,2.67,0,0,1-.51,2.21,4.76,4.76,0,0,1-.82.75l-.83.65-1.62,1.28-3.1,2.43-10.28,8L254,308.92l-1.69,1.3c-.38.3-.58.43-.58.43l.58-.49L254,308.8l6.47-5.19,10.16-8.1,3.06-2.44,1.61-1.28.82-.65a4.11,4.11,0,0,0,.75-.68,2.33,2.33,0,0,0-2.83-3.53L272,288l-1.07.57.83-.89,2.9-3.1c.48-.52,1-1.06,1.46-1.59a3.28,3.28,0,0,0-1.75-5.15,3.37,3.37,0,0,0-2.17.15l-2.24.9-1.27.52,1-.91,4.55-3.95h0a3.34,3.34,0,0,0-1.75-6.1,5.7,5.7,0,0,0-2.15.46l-2.23.71-4.51,1.43-1.1.35.86-.78,9.87-8.93,2.54-2.3c.84-.79,1.74-1.49,2.51-2.31a5.69,5.69,0,0,0,1.64-2.81,1.36,1.36,0,0,0-.56-1.31c-.06-.15-.32-.06-.59,0a7.06,7.06,0,0,0-.8.29,55.83,55.83,0,0,0-5.86,3.14c-1.9,1.13-3.76,2.28-5.6,3.44-3.67,2.31-7.22,4.63-10.65,6.93l-.63.42.27-.75a7.54,7.54,0,0,0,.29-2,20.59,20.59,0,0,0,0-2.08,31.68,31.68,0,0,0-.43-4.07,6.8,6.8,0,0,0-.67-1.83,4.48,4.48,0,0,0-1.3-1.37,5.15,5.15,0,0,0-3.64-.61l.19-.23q0,6.34,0,12.26c0,.5,0,1,0,1.5a7.91,7.91,0,0,1-.32,1.46,18.13,18.13,0,0,1-1.13,2.67,39.76,39.76,0,0,1-2.92,4.74c-1,1.49-2.14,2.88-3.19,4.22s-2.05,2.68-3,4c-1.92,2.6-3.7,5.06-5.34,7.35l0-.21L247,305.73l3.49,3.63.91.95Z" style="fill:#eb996e"></path><path d="M251.71,310.65l-68.13,90c-10.35,13.65-29,18.65-44.47,11.24-11.32-5.42-19.62-16.8-12.68-40.22L191.7,327l39.68-38.29Z" style="fill:#FF725E"></path><path d="M139.11,411.85l.73.37,2.14,1.13a28.84,28.84,0,0,0,8.9,2.39,30.87,30.87,0,0,0,6.68-.12,36.39,36.39,0,0,0,3.76-.67c.65-.14,1.29-.36,2-.54a19.22,19.22,0,0,0,2-.65,39.27,39.27,0,0,0,8.19-4,31.89,31.89,0,0,0,7.68-6.71c4.65-5.5,9.46-11.78,14.66-18.48S206.45,370.6,212.21,363c11.5-15.22,24.07-32,37.2-49.68l2.09-2.81,0,.33-20.33-22,.35,0c-13.89,11.47-26.75,22.41-38.4,32.16s-22.08,18.33-30.9,25.31-16,12.43-21,16.08c-2.49,1.85-4.45,3.21-5.76,4.16l-1.5,1.06-.52.34.49-.38,1.48-1.1c1.29-1,3.23-2.36,5.7-4.22,5-3.7,12.1-9.17,20.89-16.19s19.2-15.61,30.83-25.4,24.47-20.73,38.35-32.21l.19-.15.16.17,20.34,22,.15.16-.13.18-2.09,2.82c-13.14,17.66-25.72,34.45-37.24,49.65-5.77,7.6-11.25,14.82-16.45,21.52s-10,13-14.72,18.46a32.24,32.24,0,0,1-7.78,6.75,39.24,39.24,0,0,1-8.27,4,19.56,19.56,0,0,1-2,.65c-.67.18-1.32.39-2,.54a34.11,34.11,0,0,1-3.79.64,29.93,29.93,0,0,1-6.73.08,28.38,28.38,0,0,1-8.93-2.5c-.94-.5-1.64-.91-2.11-1.17S139.11,411.85,139.11,411.85Z" style="fill:#263238"></path><path d="M190.77,388.41a19,19,0,0,0-2.38-1.36,14.43,14.43,0,0,0-7.33-.93,26.23,26.23,0,0,0-5.05,1.06c-1.78.54-3.63,1.3-5.59,2.07a57.25,57.25,0,0,1-6.26,2.18,19.7,19.7,0,0,1-7.11.7,24.81,24.81,0,0,1-6.88-1.91c-2.13-.88-4.1-1.89-6-2.75-3.79-1.77-7.48-2.91-10.64-2.74a11.53,11.53,0,0,0-6.88,2.5,10.76,10.76,0,0,0-1.81,2,3.39,3.39,0,0,1,.33-.64,8.36,8.36,0,0,1,1.35-1.56,11.39,11.39,0,0,1,7-2.71c3.25-.24,7,.91,10.85,2.66,1.93.86,3.91,1.85,6,2.72a24.62,24.62,0,0,0,6.74,1.86,19.24,19.24,0,0,0,6.92-.67,58.11,58.11,0,0,0,6.22-2.14c2-.76,3.82-1.51,5.64-2a25.81,25.81,0,0,1,5.14-1,14.23,14.23,0,0,1,7.44,1.1A8.19,8.19,0,0,1,190.77,388.41Z" style="fill:#fafafa"></path><path d="M214.85,358.25a3.79,3.79,0,0,0,.26-1.78,5,5,0,0,0-3-3.66,16.35,16.35,0,0,0-3.31-1,17.86,17.86,0,0,1-3.87-1.24,25.1,25.1,0,0,1-7.29-5.72c-2.25-2.39-4.25-4.77-6.39-6.61a16.82,16.82,0,0,0-6.4-3.66,11.09,11.09,0,0,0-5-.34c-1.17.21-1.77.5-1.79.45s.14-.09.43-.22a6.77,6.77,0,0,1,1.32-.43,10.73,10.73,0,0,1,5.1.19,16.66,16.66,0,0,1,6.62,3.65,81.75,81.75,0,0,1,6.45,6.62,25.22,25.22,0,0,0,7.12,5.63c2.5,1.24,5.16,1.34,7.13,2.35a5.2,5.2,0,0,1,3.05,4,2.75,2.75,0,0,1-.21,1.39A1.22,1.22,0,0,1,214.85,358.25Z" style="fill:#fafafa"></path></g><g id="freepik--speech-bubbles--inject-39"><path d="M406.21,121.33l-3,.19-5.89,9.5.39,5.94s-4.58.59-4.56-7.23-.43-5.8-.43-5.8-9.78.61-10.65-.19c-.63-.57-1.54-10.27-2-15.53a5.71,5.71,0,0,1,3.66-6,4.18,4.18,0,0,1,1-.21c2.44-.16,15,1,15,1l5.14-.34Z" style="fill:#455a64"></path><polygon points="414.85 122.39 411.66 102.14 406.56 102.48 407.89 122.44 414.85 122.39" style="fill:#455a64"></polygon><path d="M336.45,139.52a1.36,1.36,0,0,1,.42.1,2.36,2.36,0,0,1,.5.2,3.72,3.72,0,0,1,.65.34,7.48,7.48,0,0,1,3.51,6.73,6.61,6.61,0,0,1-1.32,3.49,7.77,7.77,0,0,1-3.28,2.49,7.18,7.18,0,0,1-4.41.34,7.1,7.1,0,0,1-3.66-2.47,7.55,7.55,0,0,1-1.62-3.79,6.53,6.53,0,0,1,.57-3.68,7.49,7.49,0,0,1,6.38-4.13,4.19,4.19,0,0,1,.73,0,2.38,2.38,0,0,1,.53.08,1.28,1.28,0,0,1,.42.12c0,.06-.6-.1-1.67,0a7.49,7.49,0,0,0-4.11,1.7,7.1,7.1,0,0,0-1.89,2.41,6.18,6.18,0,0,0-.49,3.44,6.68,6.68,0,0,0,12.11,3.2,6.07,6.07,0,0,0,1.28-3.23,7.06,7.06,0,0,0-.45-3,7.43,7.43,0,0,0-2.74-3.5C337,139.73,336.43,139.57,336.45,139.52Z" style="fill:#263238"></path><path d="M315.63,157.33a2.18,2.18,0,0,1,1,.37,4.76,4.76,0,0,1,2.27,4.28,4.19,4.19,0,0,1-.84,2.24,4.58,4.58,0,0,1-8.32-2.2,4.21,4.21,0,0,1,.37-2.36,4.61,4.61,0,0,1,1.32-1.6,4.5,4.5,0,0,1,2.77-1,2.17,2.17,0,0,1,1.06.18s-.39,0-1,0a4.69,4.69,0,0,0-2.55,1.08,3.94,3.94,0,0,0-1.45,3.62,4.12,4.12,0,0,0,7.47,2,3.94,3.94,0,0,0,.52-3.86,4.63,4.63,0,0,0-1.68-2.2C316,157.49,315.61,157.38,315.63,157.33Z" style="fill:#263238"></path><path d="M345.94,109s0-.28.12-.83l.39-2.44.3-1.8c.14-.66.36-1.36.56-2.13L348,99.3a10.68,10.68,0,0,1,.45-1.35l.55-1.4a49,49,0,0,1,7.32-13.09,51.65,51.65,0,0,1,14.87-13.13l2.44-1.4c.84-.42,1.73-.79,2.6-1.2s1.76-.86,2.7-1.16l2.84-1,1.44-.48,1.5-.36,3-.71c1-.21,2.09-.3,3.15-.45a24.42,24.42,0,0,1,3.21-.34,47.51,47.51,0,0,1,6.64,0c1.12.09,2.25.12,3.39.27l3.4.59c.57.11,1.15.17,1.71.32l1.7.47c1.13.33,2.28.6,3.41,1A55.4,55.4,0,0,1,421,68.78l1.64.83c.28.15.56.28.83.43l.78.5,3.15,2c1,.72,2,1.54,3,2.31.49.4,1,.76,1.48,1.21l1.39,1.32a60.9,60.9,0,0,1,5.27,5.7c.75,1.07,1.51,2.14,2.28,3.22l.57.81.5.86,1,1.73,1,1.73.84,1.83.83,1.85.42.92c.12.31.22.64.33,1l1.32,3.86c.31,1.33.62,2.67.94,4a51.72,51.72,0,0,1-4,32.68l-1.87,3.66-2.21,3.44-.55.85-.63.8-1.25,1.59-1.25,1.57-1.39,1.45-1.38,1.44-.69.72-.75.65-3,2.57a57,57,0,0,1-6.48,4.27l-1.67,1c-.55.32-1.15.54-1.72.81-1.16.51-2.3,1.07-3.46,1.53l-3.54,1.2-.88.3-.9.22-1.8.42a55.46,55.46,0,0,1-7.15,1.17c-1.19.1-2.38.09-3.55.13l-1.76.06c-.58,0-1.16-.07-1.74-.11l-3.45-.24c-1.13-.13-2.24-.37-3.35-.55a48.19,48.19,0,0,1-6.45-1.57,24.45,24.45,0,0,1-3-1.1c-1-.4-2-.74-2.95-1.19L373,161.19l-1.36-.71-1.29-.81L367.78,158c-.85-.52-1.57-1.19-2.34-1.77s-1.52-1.18-2.24-1.79l-2-1.95a51.63,51.63,0,0,1-11.29-16.31,49.41,49.41,0,0,1-4-14.46c-.07-.52-.13-1-.19-1.5a8.57,8.57,0,0,1-.12-1.41c0-.91,0-1.77-.06-2.57s-.06-1.52,0-2.19.1-1.28.14-1.82c.09-1.07.16-1.89.2-2.46s.09-.84.09-.84,0,.29,0,.84-.08,1.39-.14,2.47c0,.54-.08,1.14-.12,1.81s0,1.4.06,2.19.06,1.65.09,2.56a8.48,8.48,0,0,0,.13,1.4c.06.49.13,1,.2,1.49a49.5,49.5,0,0,0,4,14.38,51.46,51.46,0,0,0,11.28,16.16l2,1.92c.72.61,1.48,1.18,2.24,1.78s1.48,1.24,2.32,1.75l2.51,1.6,1.28.81,1.36.69,2.76,1.41c.94.44,1.94.78,2.92,1.18a27.72,27.72,0,0,0,3,1.08,47.78,47.78,0,0,0,6.4,1.54c1.1.17,2.2.42,3.32.54l3.42.24c.57,0,1.15.1,1.73.1l1.74-.06c1.17,0,2.34,0,3.52-.14a54.43,54.43,0,0,0,7.08-1.17l1.78-.42c.3-.07.6-.13.89-.21l.87-.3,3.51-1.2c1.16-.45,2.28-1,3.43-1.51.56-.28,1.16-.49,1.71-.81l1.64-1a57.39,57.39,0,0,0,6.42-4.24l3-2.55.74-.64.69-.71,1.36-1.43,1.37-1.43,1.24-1.56,1.24-1.58.62-.78.55-.85,2.18-3.4c.61-1.21,1.23-2.42,1.85-3.63a55.24,55.24,0,0,0,4.62-15.86,55.15,55.15,0,0,0-.68-16.5c-.31-1.32-.62-2.65-.93-4s-.87-2.56-1.3-3.83c-.11-.32-.21-.64-.33-1l-.41-.92-.83-1.82-.82-1.81-1-1.72-1-1.72-.5-.85-.57-.8-2.25-3.19a59.71,59.71,0,0,0-5.22-5.65l-1.37-1.31c-.45-.44-1-.8-1.46-1.2-1-.76-1.95-1.57-3-2.29L424,71l-.78-.5c-.26-.15-.54-.28-.81-.42l-1.62-.84a55.06,55.06,0,0,0-6.6-2.83c-1.12-.38-2.26-.66-3.38-1l-1.68-.47c-.56-.15-1.14-.22-1.7-.32L404.07,64c-1.12-.16-2.25-.18-3.36-.28a48.23,48.23,0,0,0-6.58,0,25.92,25.92,0,0,0-3.19.33c-1.05.15-2.1.23-3.12.44l-3,.7-1.49.35c-.48.14-.95.32-1.43.47l-2.82,1c-.94.29-1.79.77-2.68,1.14s-1.75.77-2.59,1.19l-2.42,1.38a51.79,51.79,0,0,0-14.83,13,49.45,49.45,0,0,0-7.36,13l-.56,1.4a10.51,10.51,0,0,0-.46,1.33c-.25.88-.48,1.7-.7,2.46s-.43,1.46-.58,2.12-.23,1.25-.32,1.79c-.2,1-.35,1.86-.45,2.42S345.94,109,345.94,109Z" style="fill:#263238"></path><path d="M188.89,126.08c0,.06-.6.14-1.56.62a7.43,7.43,0,0,0-3.13,3.15,7.09,7.09,0,0,0-.82,3,6.12,6.12,0,0,0,.88,3.36,6.67,6.67,0,0,0,12.4-1.71,6.18,6.18,0,0,0-.06-3.47,7.14,7.14,0,0,0-1.59-2.62,7.41,7.41,0,0,0-3.87-2.18c-1-.21-1.66-.12-1.66-.18a1.31,1.31,0,0,1,.43-.07,2.36,2.36,0,0,1,.54,0,4,4,0,0,1,.73.06,7.34,7.34,0,0,1,4.1,2.12,7.44,7.44,0,0,1,1.73,2.75,6.5,6.5,0,0,1,.12,3.72,7.55,7.55,0,0,1-2.07,3.56,7,7,0,0,1-3.93,2,7.14,7.14,0,0,1-4.34-.87,7.55,7.55,0,0,1-2.95-2.87,6.57,6.57,0,0,1-.89-3.61,7.51,7.51,0,0,1,4.29-6.27,4.69,4.69,0,0,1,.69-.26,2.62,2.62,0,0,1,.52-.13A1.32,1.32,0,0,1,188.89,126.08Z" style="fill:#263238"></path><path d="M207.87,142.23s-.37.11-1,.42a4.75,4.75,0,0,0-1.93,2,3.93,3.93,0,0,0,.06,3.9,4.11,4.11,0,0,0,7.64-1.06,3.9,3.9,0,0,0-1-3.76,4.69,4.69,0,0,0-2.39-1.39c-.66-.14-1-.1-1-.14a2,2,0,0,1,1.07-.06,4.73,4.73,0,0,1,3.74,3.08,4.2,4.2,0,0,1,.09,2.39,4.58,4.58,0,0,1-8.53,1.18,4.15,4.15,0,0,1-.56-2.33,4.77,4.77,0,0,1,2.76-4A2.05,2.05,0,0,1,207.87,142.23Z" style="fill:#263238"></path><path d="M134.08,87.34h-3.23l-7-9.83V71.07s-5-.31-4.41,8.13-.05,6.29-.05,6.29-10.6,0-11.48,1c-.64.67-.93,11.2-1,16.91a6.19,6.19,0,0,0,4.38,6.23,4.52,4.52,0,0,0,1.14.15c2.65,0,16.15-2.15,16.15-2.15h5.58Z" style="fill:#FF725E"></path><polygon points="143.33 85.57 141.34 107.65 135.81 107.65 135.81 86.01 143.33 85.57" style="fill:#FF725E"></polygon><path d="M183.16,90.4s0-.3-.08-.9-.09-1.51-.16-2.67c0-.59-.07-1.24-.11-2s-.22-1.5-.35-2.35-.27-1.76-.43-2.74a9.25,9.25,0,0,0-.32-1.49c-.13-.51-.27-1-.41-1.57a53.62,53.62,0,0,0-6.2-14.91,56,56,0,0,0-14.23-15.89l-2.42-1.8c-.85-.56-1.75-1.07-2.63-1.62l-1.34-.81a10.46,10.46,0,0,0-1.39-.77l-2.9-1.39c-.49-.23-1-.48-1.48-.7l-1.55-.57L144,37.11c-1.07-.35-2.19-.58-3.29-.88L139,35.8c-.28-.07-.56-.15-.85-.21l-.86-.13a52.72,52.72,0,0,0-7.07-.82c-1.21,0-2.42-.16-3.65-.14l-3.7.19c-.62,0-1.24,0-1.87.12l-1.86.29c-1.24.2-2.51.35-3.76.61A59.71,59.71,0,0,0,108,37.89l-1.85.68c-.31.12-.63.22-.93.35l-.9.43-3.61,1.75c-1.18.64-2.31,1.38-3.48,2.08-.57.36-1.18.67-1.73,1.09L93.82,45.5a62,62,0,0,0-6.35,5.39L84.63,54l-.71.78c-.22.28-.43.57-.64.85L82,57.37l-1.29,1.72-1.13,1.83-1.12,1.86-.56.92c-.17.32-.32.66-.48,1l-1.9,3.94c-.5,1.38-1,2.76-1.52,4.14A59.78,59.78,0,0,0,71.12,90.4,59.88,59.88,0,0,0,74,108l1.52,4.14,1.89,3.94.48,1,.57.93,1.12,1.85,1.13,1.84L82,123.44l1.28,1.71.64.85.72.79,2.84,3.13a63,63,0,0,0,6.34,5.39l1.65,1.23c.54.41,1.16.73,1.73,1.09,1.17.7,2.3,1.44,3.48,2.08l3.61,1.74.9.44.93.35,1.85.68a59.71,59.71,0,0,0,7.46,2.18c1.25.26,2.52.41,3.76.61l1.87.29c.62.08,1.24.08,1.86.12l3.71.19c1.22,0,2.44-.1,3.64-.14a52.72,52.72,0,0,0,7.07-.82l.87-.13L139,145l1.68-.43c1.11-.3,2.23-.53,3.29-.89l3.15-1.14,1.55-.57,1.48-.7,2.9-1.39a11.72,11.72,0,0,0,1.39-.77l1.34-.81c.89-.55,1.78-1.06,2.63-1.62l2.42-1.8A55.86,55.86,0,0,0,175.1,119c.41-.68.82-1.33,1.2-2s.66-1.36,1-2l.94-1.95c.15-.32.32-.63.45-1l.36-1c.47-1.27.91-2.49,1.34-3.65s.63-2.32.93-3.39c.14-.54.28-1.06.41-1.57A9.36,9.36,0,0,0,182,101c.16-1,.3-1.88.43-2.73s.28-1.63.35-2.35.08-1.37.11-2c.07-1.16.13-2,.16-2.67s.08-.91.08-.91,0,.31,0,.91-.06,1.51-.11,2.68c0,.58-.06,1.24-.09,2s-.21,1.5-.32,2.35-.27,1.77-.41,2.75a10.54,10.54,0,0,1-.31,1.5c-.13.51-.26,1-.4,1.58-.29,1.07-.52,2.24-.91,3.41s-.87,2.39-1.33,3.67l-.36,1c-.12.32-.29.63-.44,1-.3.64-.62,1.29-.94,2s-.64,1.34-1,2-.8,1.33-1.2,2a56,56,0,0,1-14.25,16L158.67,137c-.86.57-1.76,1.08-2.65,1.64l-1.35.82a10.46,10.46,0,0,1-1.39.77l-2.92,1.42c-.5.23-1,.48-1.49.7l-1.56.58-3.17,1.16c-1.08.36-2.2.59-3.32.9l-1.69.44c-.28.07-.56.15-.85.21l-.87.13a51.87,51.87,0,0,1-7.12.84c-1.22,0-2.44.17-3.68.15l-3.73-.18c-.62-.05-1.26,0-1.88-.12l-1.88-.29c-1.26-.2-2.53-.35-3.8-.61a59,59,0,0,1-7.52-2.19l-1.87-.69c-.31-.11-.63-.22-.94-.35l-.91-.43-3.64-1.76c-1.19-.64-2.34-1.39-3.52-2.09-.57-.37-1.19-.68-1.74-1.1l-1.66-1.24a61.91,61.91,0,0,1-6.41-5.44l-2.87-3.15-.72-.79-.65-.86-1.29-1.73L80.28,122l-1.14-1.85L78,118.28l-.57-.94-.48-1-1.92-4-1.53-4.18A60.21,60.21,0,0,1,70.6,90.4a60.21,60.21,0,0,1,2.91-17.8c.51-1.4,1-2.79,1.53-4.18s1.29-2.66,1.92-4c.16-.32.31-.66.48-1l.57-.94,1.14-1.87,1.14-1.85,1.29-1.74,1.3-1.72c.21-.29.42-.58.65-.86l.72-.79,2.87-3.16a64.06,64.06,0,0,1,6.4-5.43l1.66-1.24c.55-.42,1.17-.73,1.75-1.1,1.18-.7,2.32-1.45,3.51-2.09l3.65-1.76.9-.43c.31-.13.63-.24.94-.35l1.87-.69a59,59,0,0,1,7.52-2.19c1.26-.26,2.54-.41,3.8-.61l1.88-.29c.62-.08,1.25-.07,1.88-.12l3.73-.18c1.23,0,2.46.1,3.67.15a51.83,51.83,0,0,1,7.13.84l.87.13c.29.06.57.14.85.21l1.69.44c1.11.3,2.24.54,3.32.9l3.17,1.16,1.56.57,1.48.71,2.93,1.41a11.79,11.79,0,0,1,1.39.78l1.35.82c.89.55,1.79,1.07,2.64,1.63l2.43,1.83a56,56,0,0,1,14.26,16,53.42,53.42,0,0,1,6.15,15c.14.54.27,1.07.4,1.58a10.54,10.54,0,0,1,.31,1.5c.14,1,.28,1.9.41,2.75s.26,1.63.32,2.35.06,1.38.09,2c.05,1.17.08,2.06.11,2.67S183.16,90.4,183.16,90.4Z" style="fill:#263238"></path></g><g id="freepik--question-marks--inject-39"><path d="M272.94,109.91h0a1.5,1.5,0,0,1-1.46-1.54L271.78,95a1.49,1.49,0,0,1,.62-1.18,1.51,1.51,0,0,1,1.32-.21,9.53,9.53,0,0,0,7.5-.94,8.72,8.72,0,0,0,4.25-5.43,8.85,8.85,0,0,0-1.38-6.78,9.62,9.62,0,0,0-6.19-4.31c-4.91-.91-10.29,2.36-12,7.3a1.5,1.5,0,0,1-2.84-1c2.18-6.28,9.08-10.44,15.39-9.27a12.65,12.65,0,0,1,8.15,5.62,11.22,11.22,0,0,1-3.89,16.45,12.72,12.72,0,0,1-8,1.62l-.29,11.54A1.5,1.5,0,0,1,272.94,109.91Z" style="fill:#263238"></path><path d="M275.26,116.51a2.2,2.2,0,1,1-2.19-2.2A2.19,2.19,0,0,1,275.26,116.51Z" style="fill:#263238"></path><path d="M108.8,263.82a10.43,10.43,0,0,1-6.25-2A10.08,10.08,0,0,1,98.72,255a9,9,0,0,1,8.6-10.38,10.15,10.15,0,0,1,5.93,1.46l4-7.49a1.5,1.5,0,1,1,2.66,1.4L115.08,249a1.52,1.52,0,0,1-1.09.78,1.46,1.46,0,0,1-1.27-.4,7,7,0,0,0-5.22-1.81,6.34,6.34,0,0,0-4.52,2.16,6.47,6.47,0,0,0-1.28,4.87,7,7,0,0,0,2.65,4.82,8.28,8.28,0,0,0,10.28-.89,1.5,1.5,0,0,1,2.1,2.14A11.36,11.36,0,0,1,108.8,263.82Z" style="fill:#263238"></path><path d="M119.69,232.89a1.68,1.68,0,1,1,.76,2.25A1.68,1.68,0,0,1,119.69,232.89Z" style="fill:#263238"></path><path d="M411.54,238.58a1.48,1.48,0,0,1-1.22-.62l-6-8.3a1.48,1.48,0,0,1-.22-1.32,1.51,1.51,0,0,1,.92-1A6.92,6.92,0,0,0,409,223.5a6.26,6.26,0,0,0,.07-5,6.41,6.41,0,0,0-3.79-3.32,7.05,7.05,0,0,0-5.5.24A8.28,8.28,0,0,0,396,225a1.5,1.5,0,1,1-2.85.94,11.28,11.28,0,0,1,5.25-13.23,10.08,10.08,0,0,1,7.86-.38,9.44,9.44,0,0,1,5.53,4.91,9.33,9.33,0,0,1,0,7.4,10.25,10.25,0,0,1-3.93,4.67l5,6.86a1.5,1.5,0,0,1-.34,2.1A1.48,1.48,0,0,1,411.54,238.58Z" style="fill:#263238"></path><path d="M416.72,240.94a1.68,1.68,0,1,1-2.36-.32A1.69,1.69,0,0,1,416.72,240.94Z" style="fill:#263238"></path></g></svg>