<?xml version="1.0" encoding="utf-8"?>
<!-- Generator: Adobe Illustrator 24.2.3, SVG Export Plug-In . SVG Version: 6.00 Build 0)  -->
<svg version="1.1" id="Layer_1" xmlns="http://www.w3.org/2000/svg" xmlns:xlink="http://www.w3.org/1999/xlink" x="0px" y="0px"
	 viewBox="0 0 512 512" style="enable-background:new 0 0 512 512;" xml:space="preserve">
<style type="text/css">
	.st0{display:none;}
	.st1{display:inline;}
	.st2{fill:#E67772;}
	.st3{fill:#FFFFFF;}
</style>
<g>
	<g>
		<g class="st0">
			
				<image style="display:inline;overflow:visible;opacity:0.2;" width="471" height="348" xlink:href="E9BF50FE15972201.png"  transform="matrix(1 0 0 1 28 88)">
			</image>
			<g class="st1">
				<path class="st2" d="M438.4,92.1L67.3,122.8c-25.1,2.1-42.1,26.4-35.6,50.7l41.8,154.1c4.8,17.6,20.7,29.7,38.9,29.7h34.5
					l55.4,64l-7.3-64h200.2c18.5,0,34.5-12.5,39.1-30.4l46.6-184.8C487.5,115.3,465.9,89.9,438.4,92.1z"/>
			</g>
		</g>
		<g>
			<path class="st2" d="M438.4,92.1L67.3,122.8c-25.1,2.1-42.1,26.4-35.6,50.7l41.8,154.1c4.8,17.6,20.7,29.7,38.9,29.7h34.5
				l55.4,64l-7.3-64h200.2c18.5,0,34.5-12.5,39.1-30.4l46.6-184.8C487.5,115.3,465.9,89.9,438.4,92.1z"/>
			<path class="st2" d="M438.4,92.1L67.3,122.8c-25.1,2.1-42.1,26.4-35.6,50.7l41.8,154.1c4.8,17.6,20.7,29.7,38.9,29.7h34.5
				l55.4,64l-7.3-64h200.2c18.5,0,34.5-12.5,39.1-30.4l46.6-184.8C487.5,115.3,465.9,89.9,438.4,92.1z M478,141.4l-46.6,184.8
				c-4.2,16.6-19.1,28.3-36.3,28.3H191.7l6.6,57.9l-50.2-57.9h-35.8c-16.8,0-31.7-11.4-36.1-27.6L34.5,172.7
				c-2.9-10.8-0.9-22.1,5.5-31.3c6.4-9.1,16.4-14.9,27.5-15.8L438.6,95c1.1-0.1,2.1-0.1,3.2-0.1c11,0,21.2,4.7,28.4,13.2
				C478.2,117.4,481,129.6,478,141.4z"/>
		</g>
	</g>
</g>
<g>
	<path class="st3" d="M176.4,279.2l-17-31.9c-3.5,0.2-6.6,0.2-9.4,0.2h-3.2v31.6h-12.5V195h19.1c9.7,0,17.7,2,23.9,6
		c6.3,4,9.4,10.5,9.4,19.5c0,5.7-1.3,10.5-4,14.6c-2.6,4.1-6.6,7.2-11.7,9.5l20.1,34.6H176.4z M155,237.2c7.5,0,12.6-1.6,15.4-4.9
		c2.8-3.2,4.2-7.1,4.2-11.6c0-10-6.7-15-20-15h-7.7v31.5H155z"/>
	<path class="st3" d="M234.5,239.9l-5.3-11.9l-2.4,11.9l-7.8,39.3h-12.7l17.4-84.2h1.4l23.1,45.5l6.9,15.2l6.9-15.2l22.7-45.5h1.3
		l18.1,84.2h-12.6l-8.5-39.3l-2.5-11.9l-4.6,11.9l-20.4,39.3h-0.7L234.5,239.9z"/>
	<path class="st3" d="M339.6,274.2c-6.4-3.9-11.2-9.1-14.6-15.6c-3.4-6.5-5-13.7-5-21.6c0-8.3,1.8-15.8,5.4-22.3
		c3.6-6.6,8.7-11.7,15.3-15.4c6.6-3.7,14-5.6,22.3-5.6c3.7,0,7.2,0.4,10.5,1.2c3.2,0.8,5.9,1.7,8.1,2.7c2.1,1,3.6,1.9,4.2,2.6
		l-5.6,11.5c-4.7-4.1-10.7-6.2-18.2-6.2c-5.3,0-10,1.3-14.3,3.9c-4.3,2.6-7.6,6.3-10.1,11.1c-2.4,4.8-3.7,10.4-3.7,16.7
		c0,5.8,1.1,11.1,3.3,15.8c2.2,4.7,5.4,8.5,9.6,11.2c4.2,2.8,9.2,4.1,15,4.1c6.7,0,13.2-1.9,19.5-5.7l3.8,10.9
		c-1.7,1.5-4.8,3-9.2,4.4c-4.5,1.4-9,2.1-13.6,2.1C353.5,280,346,278.1,339.6,274.2z"/>
</g>
</svg>
